<?xml version="1.0" standalone="no"?><!DOCTYPE svg PUBLIC "-//W3C//DTD SVG 1.1//EN" "http://www.w3.org/Graphics/SVG/1.1/DTD/svg11.dtd"><svg t="1767594065823" class="icon" viewBox="0 0 1024 1024" version="1.1" xmlns="http://www.w3.org/2000/svg" p-id="7170" xmlns:xlink="http://www.w3.org/1999/xlink" width="32" height="32"><path d="M64.5 192.36c0-70.64 57.22-127.86 127.86-127.86h639.29c70.58 0 127.86 57.22 127.86 127.86v639.29h-895V192.36z m63.93 575.35h767.14V192.36c0-35.35-28.64-63.93-63.93-63.93H192.36c-35.35 0-63.93 28.58-63.93 63.93v575.35z m264.98-440.46c8.5-8.37 25.51-8.37 34.01 0l76.59 75.05c8.5 12.53 21.29 12.53 29.79 4.22l110.53-91.8-38.23-37.59c-8.5-8.31-4.28-20.84 8.5-20.84h146.91c1.6 0 3.2 0.64 4.35 1.79a6.042 6.042 0 0 1 1.79 4.28h0.06V402.3c0 8.37-12.79 16.69-21.29 8.37l-46.8-45.9-165.82 137.7c-8.5 8.31-21.29 8.31-34.07 0l-72.3-75.12c-8.5-8.37-25.51-8.37-34.01 0l-76.52 75.12c-17 12.53-38.29 12.53-51.08 0-12.72-12.53-12.72-37.59 0-50.06l127.59-125.16zM288.25 575.93h447.5c17.64 0 31.96 14.32 31.96 31.96s-14.32 31.96-31.96 31.96h-447.5c-17.64 0-31.96-14.32-31.96-31.96s14.32-31.96 31.96-31.96zM96.46 895.57h831.07c17.64 0 31.96 14.32 31.96 31.96s-14.32 31.96-31.96 31.96H96.46c-17.64 0-31.96-14.32-31.96-31.96s14.32-31.96 31.96-31.96z" fill="#2c2c2c" p-id="7171"></path></svg>