<?xml version="1.0" standalone="no"?><!DOCTYPE svg PUBLIC "-//W3C//DTD SVG 1.1//EN" "http://www.w3.org/Graphics/SVG/1.1/DTD/svg11.dtd"><svg t="1767594029903" class="icon" viewBox="0 0 1024 1024" version="1.1" xmlns="http://www.w3.org/2000/svg" p-id="5003" xmlns:xlink="http://www.w3.org/1999/xlink" width="32" height="32"><path d="M175.157895 475.082105V875.789474h673.68421V474.112a141.797053 141.797053 0 0 1-122.610526-31.258947l-11.317895-10.778948-11.317895 10.778948a141.797053 141.797053 0 0 1-92.510315 34.492631c-36.917895 0-70.602105-14.282105-96.36379-37.888l-6.278737-6.117052-6.305684 6.117052a142.093474 142.093474 0 0 1-96.336842 37.888 142.093474 142.093474 0 0 1-96.336842-37.888l-6.305684-6.117052-6.305684 6.117052A142.093474 142.093474 0 0 1 175.157895 475.055158zM53.894737 323.368421V107.789474h911.467789v215.578947a157.965474 157.965474 0 0 1-35.678315 100.675368V956.631579h-835.368422V429.541053A157.642105 157.642105 0 0 1 53.894737 323.368421z m80.842105-134.736842v134.736842c0 41.256421 30.369684 73.135158 65.778526 73.135158 16.680421 0 32.390737-6.871579 44.65179-19.482947l57.990737-59.715369 57.990737 59.715369c12.261053 12.611368 27.971368 19.482947 44.651789 19.482947s32.390737-6.871579 44.65179-19.482947l57.990736-59.715369 57.990737 59.715369c12.261053 12.611368 27.971368 19.482947 44.65179 19.482947 16.922947 0 32.875789-7.087158 45.190737-20.07579l58.610526-61.736421 58.637474 61.736421c12.314947 12.988632 28.294737 20.075789 45.190736 20.07579 35.435789 0 65.805474-31.878737 65.805474-73.135158V188.631579H134.736842z" fill="#2c2c2c" p-id="5004"></path></svg>